<?xml version="1.0" encoding="utf-8"?>
<!-- Generator: Adobe Illustrator 22.1.0, SVG Export Plug-In . SVG Version: 6.00 Build 0)  -->
<svg version="1.1" id="Layer_1" xmlns="http://www.w3.org/2000/svg" xmlns:xlink="http://www.w3.org/1999/xlink" x="0px" y="0px"
	 viewBox="0 0 256 256" style="enable-background:new 0 0 256 256;" xml:space="preserve">
<style type="text/css">
	.st0{fill:#D73735;}
	.st1{fill:#F85252;}
	.st2{fill:#EDAF85;}
	.st3{fill:#F7C09A;}
	.st4{fill:#D8D6D7;}
	.st5{fill:#FFFFFF;}
	.st6{fill:#1C868E;}
	.st7{fill:#40C4DF;}
	.st8{fill:#491352;}
	.st9{fill:#56C1B3;}
	.st10{fill:#7BEFE4;}
</style>
<g>
	<path class="st6" d="M69.021,136.975l-3.06,15.29l-23.56,85.69c-0.84,3.05-2.77,5.57-5.3,7.18c-1.94,1.24-4.23,1.94-6.66,1.94
		c-8.2,0-14.15-7.82-11.96-15.72l21.92-79.09l4.12-15.29H69.021z"/>
	<path class="st7" d="M69.021,136.975l-3.06,15.29l-23.56,85.69c-0.84,3.05-2.77,5.57-5.3,7.18c-4.38-2.81-6.81-8.27-5.28-13.78
		l21.91-79.09l4.12-15.29H69.021z"/>
	<path class="st0" d="M70.341,99.135v53.13h-34.32c-14.67,0-26.56-11.89-26.56-26.56c0-4.12,0.94-8.02,2.61-11.5
		c1.3-2.72,3.06-5.18,5.17-7.29c4.8-4.8,11.44-7.78,18.78-7.78H70.341z"/>
	<path class="st4" d="M172.001,61.555v137.93c0,3.8-4.07,6.21-7.4,4.38l-94.26-51.6v-53.13l94.62-42.15
		C168.271,55.515,172.001,57.935,172.001,61.555z"/>
	<path class="st1" d="M70.341,99.135v30.13h-34.32c-10.55,0-19.66-6.15-23.95-15.06c1.3-2.72,3.06-5.18,5.17-7.29
		c4.8-4.8,11.44-7.78,18.78-7.78H70.341z"/>
	<path class="st5" d="M172.001,61.555v114.93c0,3.8-4.07,6.21-7.4,4.38l-94.26-51.6v-30.13l94.62-42.15
		C168.271,55.515,172.001,57.935,172.001,61.555z"/>
	<circle class="st7" cx="202.766" cy="49.863" r="11.838"/>
	<circle class="st7" cx="234.686" cy="76.249" r="11.838"/>
	<circle class="st7" cx="234.686" cy="204.514" r="11.838"/>
	<g>
		<path class="st8" d="M191.763,79.086c-2.405-1.105-4.07,2.534-1.668,3.636c40.67,18.649,41.001,76.518,0.355,95.531
			c-2.393,1.119-0.701,4.745,1.695,3.623C235.913,161.402,235.466,99.127,191.763,79.086z"/>
		<path class="st8" d="M185.475,89.421c-2.437-1.027-3.989,2.66-1.553,3.687c33.081,13.931,33.173,60.679,0.277,74.799
			c-2.428,1.042-0.854,4.717,1.578,3.676C221.932,156.064,221.78,104.71,185.475,89.421z"/>
		<path class="st8" d="M179.074,99.818c-2.492-0.884-3.826,2.892-1.332,3.771c25.257,8.914,25.459,44.751,0.206,53.884
			c-2.468,0.892-1.146,4.67,1.359,3.762C208.066,150.835,207.89,109.989,179.074,99.818z"/>
		<path class="st8" d="M174,110.788V61.551c0-5.068-5.224-8.454-9.849-6.395L69.914,97.138H36.021
			c-15.751,0-28.564,12.814-28.564,28.564c0,14.63,11.117,28.564,30.313,28.564l-21.213,76.553
			c-2.543,9.18,4.35,18.255,13.885,18.255c6.466,0,12.179-4.354,13.893-10.589l23.149-84.219h2.346l93.811,51.358
			c4.663,2.553,10.361-0.82,10.361-6.14v-49.133C193.788,144.66,193.665,116.51,174,110.788z M40.476,237.425
			c-1.237,4.504-5.364,7.649-10.035,7.649c-6.882,0-11.869-6.55-10.029-13.187l21.509-77.622h21.413L40.476,237.425z
			 M68.339,150.266H36.021c-13.545,0-24.564-11.02-24.564-24.564c0-13.544,11.02-24.564,24.564-24.564h32.318V150.266z M170,199.484
			c0,2.283-2.436,3.731-4.441,2.631l-93.22-51.034v-50.645l93.439-41.626c1.997-0.885,4.222,0.569,4.222,2.741v48.342l-0.012-0.002
			C170.005,114.206,170,103.124,170,199.484z M174.129,146.098l-0.121-31.104C188.339,120.308,188.47,140.697,174.129,146.098z"/>
		<path class="st8" d="M215.878,7.387c-1.309-1.081-3.274-0.14-3.274,1.542v31.218c-8.688-8.796-23.675-2.582-23.675,9.717
			c0,7.63,6.207,13.837,13.837,13.837s13.838-6.208,13.838-13.837V13.177l27.92,23.079v30.277
			c-8.69-8.798-23.675-2.578-23.675,9.716c0,7.63,6.207,13.838,13.837,13.838s13.838-6.208,13.838-13.838V35.315
			C248.524,33.969,250.479,35.989,215.878,7.387z M202.766,59.701c-5.424,0-9.837-4.413-9.837-9.837
			c0-5.425,4.413-9.838,9.837-9.838c5.425,0,9.838,4.413,9.838,9.838C212.604,55.288,208.191,59.701,202.766,59.701z
			 M234.686,86.087c-5.424,0-9.837-4.413-9.837-9.838c0-5.424,4.413-9.837,9.837-9.837c5.425,0,9.838,4.413,9.838,9.837
			C244.524,81.674,240.111,86.087,234.686,86.087z"/>
		<path class="st8" d="M244.524,163.579v31.218c-8.688-8.796-23.675-2.582-23.675,9.717c0,7.63,6.207,13.837,13.837,13.837
			s13.838-6.208,13.838-13.837v-40.935C248.524,160.937,244.524,160.933,244.524,163.579z M234.686,214.351
			c-5.424,0-9.837-4.413-9.837-9.837c0-5.425,4.413-9.838,9.837-9.838c5.425,0,9.838,4.413,9.838,9.838
			C244.524,209.938,240.111,214.351,234.686,214.351z"/>
	</g>
</g>
</svg>
